# xmcd CD database file
#
# Track frame offsets:
#	150
#	14925
#	33000
#	48000
#	63075
#	79275
#	96600
#	114225
#	131700
#	144000
#	160125
#	175050
#	189525
#	204675
#	220725
#	237975
#	253050
#
# Disc length: 3394 seconds
#
# Revision: 2
# Processed by: cddbd v1.5.2PL0 Copyright (c) Steve Scherf et al.
# Submitted via: Feurio! 1.67 - http://www.feurio.com
#
DISCID=ea0d4011
DTITLE=Various Artist - Bcy007
DYEAR=2006
DGENRE=Country
TTITLE0=Williams Jr., Hank and Gretchen Wilson and Big and Rich and Van Zant  - That's 
TTITLE0=How They Do It In Dixie
TTITLE1=Underwood, Carrie - Don't Forget to Remember Me
TTITLE2=Underwood, Carrie - Before He Cheats
TTITLE3=Wilson, Gretchenn  - Politically Uncorrect (Female)
TTITLE4=Hill, Faith - Lucky One, The
TTITLE5=Bon Jovi and Jennifer Nettles - Who Says You Can't Go Home
TTITLE6=Rimes, LeAnn - Something's Gotta Give
TTITLE7=Paisley, Brad - When I Get Where I'm Going
TTITLE8=Nichols, Joe - Size Matters
TTITLE9=Rascal Flatts - What Hurts The Most
TTITLE10=Messina, Jo Dee - Not Going Down
TTITLE11=Aldean, Jason - Why
TTITLE12=Rogers, Kenny - I Can't Unlove You
TTITLE13=Ingram, Jack - Wherever You Are
TTITLE14=Morgan, Craig - I Got You
TTITLE15=Wilson, Gretchen and Merle Haggard - Politically Uncorrect (Duet)
TTITLE16=??? - [EMPTY] - [EMPTY]
EXTD=
EXTT0=
EXTT1=
EXTT2=
EXTT3=
EXTT4=
EXTT5=
EXTT6=
EXTT7=
EXTT8=
EXTT9=
EXTT10=
EXTT11=
EXTT12=
EXTT13=
EXTT14=
EXTT15=
EXTT16=
PLAYORDER=
